<svg width="526" height="112" viewBox="0 0 526 112" fill="none" xmlns="http://www.w3.org/2000/svg">
<path d="M180.55 98.441C181.921 97.976 183.276 97.495 184.614 96.997C190.79 94.617 196.739 91.6841 202.388 88.234C207.985 84.768 213.356 80.772 217.727 76.102C219.888 73.775 221.823 71.255 223.146 68.672C223.807 67.387 224.339 66.072 224.63 64.804C224.936 63.472 225.033 62.493 224.952 60.759C224.775 54.469 222.63 48.129 218.759 42.48C213.485 34.392 204.372 27.86 194.34 23.543C184.276 19.129 173.276 16.706 162.937 15.31C175.163 17.123 187.389 20.317 198.259 25.902C200.953 27.314 203.598 28.822 206.049 30.556C208.517 32.257 210.856 34.135 212.953 36.189C217.211 40.249 220.598 45.048 222.598 50.264C223.606 52.8464 224.272 55.5492 224.581 58.304C224.727 59.652 224.775 61.08 224.759 62.38C224.727 63.423 224.485 64.515 224.162 65.622C222.678 70.132 218.904 74.657 214.646 78.477C205.937 86.18 195.114 91.862 184.292 95.954C188.913 92.8461 193.607 89.8495 198.372 86.967C204.985 83.147 211.195 78.67 215.872 73.614C218.211 71.111 220.065 68.431 221.098 65.991C221.598 64.771 221.872 63.648 221.952 62.685L221.985 62.316C221.985 62.156 221.969 61.931 221.969 61.754L221.952 60.567C221.92 59.78 221.823 58.994 221.759 58.207C222.233 58.1455 222.706 58.0761 223.178 57.999C221.581 48.723 215.759 40.586 207.953 34.424C200.114 28.229 190.534 23.848 180.453 20.879C160.163 14.941 137.954 14.267 115.648 17.011C117.261 17.075 116.342 17.444 116.035 17.701C115.922 17.717 115.826 17.717 115.713 17.733C115.809 17.717 115.922 17.717 116.035 17.701C115.761 17.926 115.955 18.071 118.729 17.846C115.955 18.07 115.761 17.926 116.035 17.701C137.986 15.743 159.631 16.112 179.534 21.601C189.405 24.361 198.904 28.406 206.598 34.343C214.324 40.185 220.081 48.065 221.533 56.779C220.323 50.055 216.598 43.732 211.227 38.58C205.872 33.397 199.114 29.32 191.792 26.239C177.066 20.06 160.405 17.717 143.76 17.252C127.003 16.931 109.971 18.295 93.245 21.312C84.875 22.837 76.585 24.842 68.472 27.378C60.359 29.914 52.408 32.979 44.956 36.831C44.327 37.151 43.52 37.569 42.65 38.002C41.81 38.5 40.892 39.03 39.972 39.559C39.069 40.105 38.117 40.619 37.311 41.132C36.521 41.662 35.795 42.159 35.214 42.544C25.311 47.776 17.086 55.897 14.102 65.59C13.618 64.081 11.747 65.542 10.844 64.948C10.441 64.643 10.118 63.712 10.682 61.562C11.037 60.519 11.472 59.09 12.344 57.389C13.328 55.736 14.457 53.618 16.408 51.387C16.118 51.162 15.538 50.729 15.263 50.504C13.15 52.719 11.57 55.03 10.005 57.116C8.68302 59.315 7.29502 61.256 6.45702 63.118C6.01277 63.9731 5.55033 64.8186 5.07002 65.654C4.75076 66.388 4.41737 67.1158 4.07002 67.837C3.44002 69.137 2.84402 70.116 2.32802 70.693C1.86002 71.223 1.42502 71.368 1.03802 71.111C0.65002 70.87 0.36002 70.148 0.21502 68.816C0.138449 68.0267 0.100736 67.234 0.10202 66.441C0.0860202 65.51 0.10202 64.418 0.36002 63.231C0.57002 62.043 0.84402 60.695 1.19902 59.203C1.61902 57.758 2.24702 56.218 2.90902 54.516C6.16602 46.99 11.747 40.073 18.409 34.408C25.102 28.726 32.827 24.104 40.956 20.285C49.085 16.449 57.666 13.4 66.31 10.896C74.8648 8.42786 83.5302 6.36094 92.278 4.70198C104.774 2.36686 117.427 0.971948 130.132 0.528983C142.793 0.111983 155.76 0.673984 168.502 3.06498C177.276 4.71798 186.211 7.04498 194.969 10.559C203.711 14.042 212.34 18.792 219.807 25.42C227.243 32 233.42 40.86 235.871 50.986C236.517 53.489 236.871 56.057 237.033 58.625C237.113 59.925 237.113 61.145 237.097 62.509C237.033 64.0215 236.833 65.5252 236.5 67.002C235.13 72.764 232.162 77.081 229.114 80.788C224.662 86.212 217.872 92.327 211.146 96.901C204.453 101.523 197.953 104.797 194.84 105.695C190.453 107.204 189.969 106.514 190.259 105.471C199.727 101.25 208.824 96.114 217.017 89.534C221.081 86.212 224.968 82.554 228.243 78.14C229.872 75.941 231.339 73.534 232.468 70.854C233.581 68.19 234.371 65.173 234.355 62.059C234.436 55.303 232.742 48.514 229.694 42.496C226.597 36.494 222.291 31.246 217.323 26.896C212.388 22.516 206.824 18.985 201.066 16.064C195.292 13.111 189.26 10.848 183.147 8.98698C195.034 12.742 206.92 18.15 216.904 26.784C219.388 28.935 221.743 31.294 223.839 33.894C225.952 36.494 227.888 39.27 229.436 42.288C232.581 48.306 234.388 55.158 234.355 62.043C234.339 65.157 233.549 68.142 232.42 70.773C231.275 73.422 229.807 75.797 228.178 77.963C224.904 82.313 221.033 85.875 217.001 89.117C208.856 95.521 199.888 100.48 190.582 104.54C190.953 103.561 191.259 102.566 189.856 102.438C189.856 102.438 188.437 103.063 186.679 103.85C184.901 104.603 183.111 105.325 181.308 106.016C175.179 107.332 172.663 106.867 172.357 105.856C172.034 104.813 173.857 103.128 176.34 101.298C177.534 100.464 179.002 99.485 180.55 98.441Z" fill="#DD5A12"/>
<path d="M12.8791 73.436C12.8471 73.806 13.0561 74.143 13.1041 74.513C13.6521 76.168 14.8921 77.953 16.7441 79.528C18.6131 81.071 20.7871 82.55 23.3001 83.74C28.2281 86.232 33.9301 88.128 40.0191 89.993C48.5231 92.838 58.8791 94.093 67.8991 95.153C57.2691 93.53 46.332 91.745 36.169 88.563C31.112 86.971 26.2151 85.026 22.0591 82.534C20.0461 81.248 18.1291 79.898 16.7611 78.387C15.2791 76.924 14.4251 75.349 14.1031 74.031C14.6181 74.336 15.4561 74.593 15.9711 74.979C16.3261 75.156 16.6961 75.365 17.0181 75.606C17.3081 75.863 17.7111 76.12 18.0981 76.442C19.7881 78.098 22.1401 79.737 24.8461 81.072C26.1351 81.795 27.6161 82.374 29.0181 83.016C30.5161 83.563 31.9331 84.206 33.4791 84.688C33.3671 85.042 33.1571 85.718 33.0441 86.055C37.5327 87.1929 42.0379 88.2647 46.558 89.27C51.0877 90.3211 55.6416 91.2644 60.216 92.099C69.396 93.771 78.7711 94.976 88.5641 94.751C87.8871 94.511 88.3221 94.253 88.4841 94.028H88.6281H88.4831C88.6281 93.835 88.5631 93.674 87.3561 93.578C88.5641 93.658 88.6281 93.819 88.4831 94.028C78.9161 93.53 69.719 92.629 60.667 91.215C56.141 90.507 51.6631 89.672 47.2341 88.627C42.8041 87.614 38.4241 86.392 34.1881 84.913C40.8081 87.132 47.83 88.675 54.933 89.865C62.036 91.07 69.2521 91.922 76.5161 92.565C91.0601 93.867 105.862 94.414 121.147 94.767C122.452 94.8 125.061 94.847 126.366 94.88C131.568 96.053 136.803 96.471 142.021 96.488C140.701 98.288 145.951 101.937 135.434 101.149C135.434 101.503 135.418 102.226 135.418 102.596C145.919 104.477 149.93 109.508 139.316 110.939C127.364 112.321 111.467 110.585 96.8101 110.489C86.1481 110.248 75.4051 109.798 64.7741 107.756C57.4781 106.309 49.811 104.975 42.161 103.11C34.51 101.278 26.8111 98.818 19.8211 95.025C17.2601 93.61 13.5551 92.099 10.3011 89.768C7.06405 87.501 4.32605 84.64 3.84305 82.743C2.79605 80.38 3.61805 79.85 4.48705 79.785C4.77705 80.412 5.19705 80.911 5.55005 81.457C5.93705 81.987 6.27505 82.583 6.71005 83.049L8.00005 84.463L8.64405 85.171L9.33605 85.781C10.2711 86.585 11.1891 87.437 12.1871 88.064C13.1701 88.755 14.1521 89.463 15.1671 90.009C19.2101 92.389 23.3971 94.205 27.5851 95.668C37.8131 99.493 48.266 101.921 58.703 104.155C48.523 101.68 38.0551 99.365 27.5851 95.668C23.4301 94.124 19.3231 92.211 15.4091 89.784C11.5431 87.324 7.70905 84.206 5.21305 79.737C6.05105 79.689 6.88805 79.512 7.17805 78.692C7.17805 78.692 6.87205 78.065 6.48605 77.294C6.30805 76.892 6.05105 76.49 5.92205 76.04C5.79305 75.606 5.68005 75.172 5.58405 74.834C5.56244 73.7473 5.91476 72.6861 6.58205 71.828C7.04905 71.249 7.58105 71.04 8.11205 71.04C9.19205 71.057 10.3991 71.812 11.3341 72.471C11.8011 72.825 12.3971 73.131 12.8801 73.436H12.8791Z" fill="#DD5A12"/>
<path d="M43.0601 34.717H53.2551V77.197H42.732L22.996 50.141V77.197H12.8V34.717H23.322L43.0601 61.774V34.717ZM95.724 77.197L93.241 71.054H72.9801L70.4961 77.197H59.516L78.273 34.717H88.47L107.227 77.197H95.724ZM76.575 62.297H89.711L83.176 46.023L76.576 62.296L76.575 62.297ZM132.677 78.374C128.19 78.374 124.225 77.415 120.783 75.498C117.341 73.538 114.683 70.858 112.809 67.46C110.936 64.018 109.999 60.183 109.999 55.957C109.999 51.731 110.936 47.94 112.809 44.585C114.727 41.187 117.406 38.529 120.848 36.612C124.29 34.652 128.233 33.671 132.677 33.671C135.945 33.671 139.039 34.194 141.958 35.24C144.877 36.242 147.404 37.723 149.539 39.684L142.154 47.069C140.934 46.023 139.496 45.217 137.84 44.651C136.228 44.041 134.486 43.736 132.612 43.736C130.303 43.736 128.255 44.259 126.469 45.304C124.726 46.35 123.375 47.809 122.417 49.683C121.458 51.513 120.979 53.604 120.979 55.957C120.979 58.31 121.458 60.423 122.417 62.297C123.419 64.17 124.791 65.651 126.534 66.741C128.32 67.786 130.346 68.309 132.612 68.309C134.529 68.309 136.315 68.004 137.971 67.394C139.627 66.784 141.021 65.934 142.154 64.845L149.212 71.904C147.252 73.951 144.812 75.542 141.892 76.674C138.973 77.807 135.902 78.374 132.677 78.374V78.374ZM185.555 34.717H196.012V77.197H185.555V60.597H166.668V77.197H156.211V34.717H166.668V50.663H185.555V34.717V34.717ZM241.895 34.717V44.52H227.779V77.197H217.322V44.52H203.205V34.717H241.895V34.717ZM267.242 34.717C271.73 34.717 275.651 35.567 279.006 37.266C282.405 38.965 285.019 41.405 286.849 44.586C288.679 47.766 289.594 51.491 289.594 55.761C289.594 60.074 288.679 63.843 286.849 67.067C285.019 70.292 282.426 72.797 279.072 74.583C275.717 76.326 271.817 77.197 267.373 77.197H249.074V34.717H267.242V34.717ZM267.242 67.394C270.728 67.394 273.473 66.37 275.477 64.322C277.481 62.232 278.483 59.377 278.483 55.761C278.483 52.188 277.459 49.421 275.412 47.461C273.364 45.501 270.597 44.52 267.112 44.52H259.53V67.394H267.242V67.394ZM308.93 67.786H331.085V77.197H298.473V34.717H330.824V44.127H308.93V51.121H328.013V60.14H308.93V67.786ZM371.685 34.716H381.881V77.197H371.358L351.621 50.141V77.197H341.426V34.717H351.948L371.685 61.774V34.717V34.716ZM421.148 77.197L404.09 59.421V77.197H393.633V34.717H404.09V50.206L420.233 34.651L433.957 34.717L412.978 54.519L435.657 77.197H421.148V77.197ZM452.277 67.787H474.432V77.197H441.82V34.717H474.171V44.127H452.277V51.121H471.36V60.14H452.277V67.786V67.787ZM515.032 34.717H525.228V77.197H514.706L494.968 50.141V77.197H484.773V34.717H495.295L515.032 61.774V34.717V34.717Z" fill="#2F1304"/>
</svg>
